<?xml version="1.0" encoding="UTF-8"?>
<svg width="20px" height="20px" viewBox="0 0 20 20" version="1.1" xmlns="http://www.w3.org/2000/svg" xmlns:xlink="http://www.w3.org/1999/xlink">
    <!-- Generator: Sketch 47 (45396) - http://www.bohemiancoding.com/sketch -->
    <title>aparat logo</title>
    <desc>Created with Sketch.</desc>
    <defs></defs>
    <g id="Home-Pgae" stroke="none" stroke-width="1" fill="none" fill-rule="evenodd">
        <g id="HomePage-1.0-A" transform="translate(-135.000000, -2020.000000)" fill="#FFFFFF">
            <g id="Section-L" transform="translate(0.000000, 1999.000000)">
                <g id="Social-Logo" transform="translate(93.000000, 20.000000)">
                    <g id="aparat-logo" transform="translate(42.000000, 1.000000)">
                        <g id="aparat">
                            <path d="M9.96887701,8.93818182 C9.43187166,8.94427807 9.0313369,9.35390374 9.03925134,9.88909091 C9.04695187,10.4204278 9.46042781,10.822139 9.99454545,10.8168984 C10.5257754,10.8116578 10.9304813,10.395615 10.9224599,9.86245989 C10.9144385,9.32139037 10.5128342,8.93197861 9.96887701,8.93818182 Z M6.36673797,10.0225668 C5.06438503,10.0334759 4.0371123,11.0879144 4.05625668,12.3944385 C4.07497326,13.6764706 5.10352941,14.6803209 6.3968984,14.6791444 C7.70534759,14.6779679 8.75893048,13.628984 8.74823529,12.337861 C8.73764706,11.0462032 7.67347594,10.0117647 6.36673797,10.0225668 Z M10.1741176,6.21165775 C10.1842781,4.90352941 9.15080214,3.84748663 7.8544385,3.84139037 C6.56096257,3.83529412 5.51122995,4.88759358 5.51090909,6.19069519 C5.51058824,7.46973262 6.53433155,8.51326203 7.80545455,8.52962567 C9.10994652,8.54631016 10.1641711,7.51486631 10.1741176,6.21165775 Z M12.257754,15.897861 C13.5520856,15.908877 14.615508,14.8781818 14.6375401,13.591123 C14.6593583,12.3176471 13.600107,11.2376471 12.3172193,11.2254545 C11.0204278,11.2131551 9.95925134,12.2452406 9.94491979,13.5327273 C9.93069519,14.8226738 10.9713369,15.8868449 12.257754,15.897861 Z M13.6687701,9.73048128 C14.9593583,9.7344385 16.0187166,8.68759358 16.0237433,7.40363636 C16.0287701,6.12631016 14.966631,5.06064171 13.6836364,5.05593583 C12.4007487,5.05122995 11.3349733,6.10823529 11.331016,7.38941176 C11.3269519,8.67561497 12.3764706,9.72663102 13.6687701,9.73048128 Z M1.57304813,9.92042781 C1.57358289,5.28951872 5.3371123,1.51946524 9.97058824,1.50855615 C14.6157219,1.49754011 18.3948663,5.28631016 18.3915508,9.95112299 C18.3883422,14.571016 14.5863102,18.3528342 9.96620321,18.3318717 C5.31786096,18.3105882 1.57262032,14.5572193 1.57304813,9.92042781 L1.57304813,9.92042781 Z" id="Fill-1"></path>
                            <path d="M4.88245989,17.6491979 C3.85122995,17.3841711 2.79903743,17.1806417 1.79379679,16.8392513 C0.465347594,16.3879144 -0.242994652,14.9849198 0.075828877,13.6124064 C0.293048128,12.6775401 0.534331551,11.7483422 0.814331551,10.7982888 C1.21433155,13.6482353 2.55743316,15.9122995 4.88245989,17.6491979" id="Fill-3"></path>
                            <path d="M10.8172193,19.1236364 C13.6327273,18.7048128 15.8873797,17.3942246 17.6482353,15.1168984 C17.3491979,16.1914439 17.1334759,17.2985027 16.7286631,18.3316578 C16.2928342,19.4435294 15.0007487,20.073369 13.820107,19.8474866 C12.8099465,19.6542246 11.8175401,19.3684492 10.8172193,19.1236364" id="Fill-4"></path>
                            <path d="M8.89304813,0.752406417 C6.12641711,1.24588235 3.92278075,2.58299465 2.25668449,4.86438503 C2.38930481,4.33144385 2.51497326,3.79668449 2.65636364,3.26609626 C2.80278075,2.71636364 2.9055615,2.14502674 3.13112299,1.62855615 C3.65294118,0.434224599 5.00770053,-0.202673797 6.27518717,0.0988235294 C7.15016043,0.30684492 8.02064171,0.533903743 8.89304813,0.752406417" id="Fill-5"></path>
                            <path d="M15.264492,2.32962567 C16.1757219,2.56010695 17.0991444,2.75080214 17.9949733,3.03037433 C19.3625668,3.45721925 20.1497326,4.89668449 19.8232086,6.29229947 C19.6181818,7.16855615 19.3896257,8.03935829 19.1254545,8.92171123 C18.7250267,6.19882353 17.4293048,4.02802139 15.264492,2.32962567" id="Fill-6"></path>
                        </g>
                    </g>
                </g>
            </g>
        </g>
    </g>
</svg>