<?xml version="1.0" encoding="UTF-8"?>
<svg width="27px" height="28px" viewBox="0 0 27 28" version="1.1" xmlns="http://www.w3.org/2000/svg" xmlns:xlink="http://www.w3.org/1999/xlink">
    <!-- Generator: Sketch 47 (45396) - http://www.bohemiancoding.com/sketch -->
    <title>customer service icon</title>
    <desc>Created with Sketch.</desc>
    <defs>
        <polygon id="path-1" points="0.06 0.216672889 0.06 24 23.7870353 24 23.7870353 0.216672889"></polygon>
    </defs>
    <g id="Home-Pgae" stroke="none" stroke-width="1" fill="none" fill-rule="evenodd">
        <g id="HomePage-1.0-A" transform="translate(-1168.000000, -1283.000000)">
            <g id="Section-I" transform="translate(0.000000, 1110.000000)">
                <g id="Info" transform="translate(1036.000000, 159.000000)">
                    <g id="Phone" transform="translate(32.000000, 0.000000)">
                        <g id="customer-service-icon" transform="translate(100.000000, 13.000000)">
                            <g id="customer-service">
                                <g id="Group-3" transform="translate(0.000000, 5.000000)">
                                    <mask id="mask-2" fill="white">
                                        <use xlink:href="#path-1"></use>
                                    </mask>
                                    <g id="Clip-2"></g>
                                    <path d="M19.117,24 C18.125,24 16.93,23.75 15.617,23.258 C12.734,22.168 9.602,20.023 6.789,17.211 C3.977,14.398 1.832,11.266 0.742,8.383 C-0.246,5.762 -0.246,3.609 0.734,2.629 C0.879,2.484 1.023,2.332 1.172,2.176 C2.07,1.234 3.102,0.16 4.43,0.219 C5.359,0.258 6.258,0.832 7.176,1.977 C9.895,5.359 8.668,6.563 7.254,7.961 L7,8.207 C6.77,8.438 6.332,9.512 10.41,13.594 C11.742,14.922 12.875,15.898 13.785,16.488 C14.355,16.859 15.375,17.422 15.793,17 L16.047,16.746 C17.441,15.332 18.648,14.109 22.027,16.824 C23.172,17.746 23.746,18.645 23.785,19.57 C23.84,20.918 22.77,21.934 21.824,22.832 C21.668,22.981 21.516,23.125 21.375,23.266 C20.883,23.754 20.102,24 19.117,24 Z M4.336,1.016 C3.379,1.016 2.516,1.926 1.75,2.731 C1.598,2.891 1.449,3.047 1.301,3.191 C0.57,3.926 0.645,5.852 1.492,8.102 C2.539,10.879 4.621,13.914 7.355,16.645 C10.086,19.379 13.121,21.461 15.898,22.508 C18.152,23.359 20.074,23.43 20.809,22.699 C20.953,22.551 21.113,22.402 21.273,22.25 C22.094,21.469 23.023,20.582 22.984,19.602 C22.957,18.926 22.465,18.203 21.523,17.445 C18.707,15.184 17.922,15.981 16.617,17.305 L16.359,17.563 C15.738,18.188 14.723,18.051 13.348,17.156 C12.395,16.535 11.215,15.527 9.844,14.156 C6.461,10.77 5.375,8.699 6.438,7.637 L6.691,7.387 C8.016,6.082 8.816,5.293 6.555,2.477 C5.797,1.535 5.074,1.043 4.398,1.016 C4.375,1.016 4.355,1.016 4.336,1.016 Z" id="Fill-1" fill="#FFFFFF" mask="url(#mask-2)"></path>
                                </g>
                                <path d="M21.773,22.535 C21.652,22.535 21.527,22.477 21.449,22.371 C21.32,22.191 21.359,21.941 21.539,21.813 C22.367,21.207 23.102,20.484 23.727,19.664 C25.137,17.816 25.879,15.606 25.879,13.273 C25.879,7.445 21.141,2.703 15.312,2.703 C13.547,2.703 11.797,3.148 10.258,3.988 C10.062,4.094 9.82,4.023 9.715,3.828 C9.609,3.633 9.68,3.391 9.875,3.285 C11.531,2.379 13.414,1.902 15.312,1.902 C21.582,1.902 26.68,7.004 26.68,13.273 C26.68,15.781 25.879,18.16 24.363,20.148 C23.691,21.031 22.902,21.809 22.012,22.461 C21.941,22.512 21.855,22.535 21.773,22.535 Z" id="Fill-4" fill="#FFFFFF"></path>
                                <path d="M13.086,8.945 C13.562,8.805 14.02,8.715 14.516,8.715 C15.789,8.715 16.57,9.352 16.57,10.438 C16.57,11.039 16.238,11.5 15.527,11.965 L14.102,12.926 C13.66,13.223 13.461,13.691 13.461,14.195 L16.383,14.195 C16.445,14.195 16.48,14.231 16.48,14.293 L16.48,14.984 C16.48,15.047 16.445,15.082 16.383,15.082 L12.547,15.082 C12.484,15.082 12.449,15.047 12.449,14.984 L12.449,14.555 C12.449,13.457 12.809,12.668 13.613,12.137 L15.035,11.191 C15.395,10.949 15.555,10.715 15.555,10.438 C15.555,9.934 15.16,9.613 14.512,9.613 C14.109,9.613 13.723,9.684 13.383,9.801 L12.859,9.973 C12.809,9.988 12.762,9.961 12.742,9.906 L12.52,9.234 C12.492,9.18 12.52,9.137 12.582,9.117 L13.086,8.945 Z" id="Fill-5" fill="#FFFFFF"></path>
                                <path d="M22.117,13.375 C22.117,13.438 22.082,13.477 22.02,13.477 L21.461,13.477 L21.461,14.984 C21.461,15.047 21.426,15.082 21.363,15.082 L20.555,15.082 C20.492,15.082 20.457,15.047 20.457,14.984 L20.457,13.477 L17.445,13.477 C17.383,13.477 17.348,13.438 17.348,13.375 L17.348,12.621 C17.348,12.566 17.355,12.531 17.391,12.496 C17.617,12.234 17.812,11.992 18.031,11.695 L19.691,9.559 C19.863,9.332 19.996,9.117 20.148,8.867 C20.188,8.82 20.223,8.805 20.277,8.805 L21.363,8.805 C21.426,8.805 21.461,8.84 21.461,8.902 L21.461,12.586 L22.02,12.586 C22.082,12.586 22.117,12.621 22.117,12.684 L22.117,13.375 Z M20.457,11.031 C20.457,10.742 20.473,10.457 20.508,10.148 C20.527,10.043 20.445,10.016 20.375,10.113 L18.918,11.965 C18.801,12.125 18.633,12.332 18.508,12.449 C18.441,12.523 18.48,12.582 18.551,12.582 L20.457,12.582 L20.457,11.031 Z" id="Fill-6" fill="#FFFFFF"></path>
                            </g>
                        </g>
                    </g>
                </g>
            </g>
        </g>
    </g>
</svg>