<?xml version="1.0" encoding="UTF-8"?>
<svg width="30px" height="40px" viewBox="0 0 30 40" version="1.1" xmlns="http://www.w3.org/2000/svg" xmlns:xlink="http://www.w3.org/1999/xlink">
    <!-- Generator: Sketch 47 (45396) - http://www.bohemiancoding.com/sketch -->
    <title>location icon</title>
    <desc>Created with Sketch.</desc>
    <defs></defs>
    <g id="Home-Pgae" stroke="none" stroke-width="1" fill="none" fill-rule="evenodd">
        <g id="HomePage-1.0-A" transform="translate(-668.000000, -1524.000000)" stroke="#4A4A4A" fill="#4A4A4A">
            <g id="Section-J" transform="translate(0.000000, 1495.000000)">
                <g id="location-icon" transform="translate(669.000000, 30.000000)">
                    <g id="placeholder">
                        <path d="M13.7658519,20.778963 C10.2417037,20.778963 7.372,17.9092593 7.372,14.3794815 C7.372,10.8553333 10.2417037,7.98562963 13.7658519,7.98562963 C17.2956296,7.98562963 20.1597037,10.8553333 20.1597037,14.3794815 C20.1597037,17.9092593 17.29,20.778963 13.7658519,20.778963 Z M13.7658519,9.11296296 C10.8637778,9.11296296 8.49933333,11.4774074 8.49933333,14.3794815 C8.49933333,17.2885926 10.8637778,19.6516296 13.7658519,19.6516296 C16.6693333,19.6516296 19.0323704,17.2885926 19.0323704,14.3794815 C19.0323704,11.4774074 16.6693333,9.11296296 13.7658519,9.11296296 Z" id="Fill-1" stroke-width="2"></path>
                        <path d="M13.7658519,37.9971852 C13.6011852,37.9971852 13.4421481,37.9268148 13.338,37.8001481 C12.7933333,37.1513333 0,21.7908889 0,14.3794815 C0,6.79355556 6.1742963,0.61362963 13.7658519,0.61362963 C21.3588148,0.61362963 27.5317037,6.79355556 27.5317037,14.3794815 C27.5317037,21.7965185 14.7454074,37.1513333 14.2007407,37.8001481 C14.090963,37.9268148 13.9305185,37.9971852 13.7658519,37.9971852 Z M13.7658519,1.74096296 C6.79496296,1.74096296 1.12733333,7.40859259 1.12733333,14.3794815 C1.12733333,20.6522963 11.5013333,33.7651111 13.7658519,36.5517778 C16.0317778,33.7651111 26.4057778,20.6522963 26.4057778,14.3794815 C26.4057778,7.40859259 20.7367407,1.74096296 13.7658519,1.74096296 Z" id="Fill-3" stroke-width="2"></path>
                    </g>
                </g>
            </g>
        </g>
    </g>
</svg>