<?xml version="1.0" encoding="UTF-8"?>
<svg width="25px" height="18px" viewBox="0 0 25 18" version="1.1" xmlns="http://www.w3.org/2000/svg" xmlns:xlink="http://www.w3.org/1999/xlink">
    <!-- Generator: Sketch 47 (45396) - http://www.bohemiancoding.com/sketch -->
    <title>mail icon</title>
    <desc>Created with Sketch.</desc>
    <defs></defs>
    <g id="Home-Pgae" stroke="none" stroke-width="1" fill="none" fill-rule="evenodd">
        <g id="HomePage-1.0-A" transform="translate(-1169.000000, -1362.000000)" fill="#FFFFFF">
            <g id="Section-I" transform="translate(0.000000, 1110.000000)">
                <g id="Info" transform="translate(1036.000000, 159.000000)">
                    <g id="Email" transform="translate(0.000000, 74.000000)">
                        <g id="mail-icon" transform="translate(133.000000, 19.000000)">
                            <g id="mail">
                                <path d="M20.086,13.983 C19.988,13.983 19.891,13.948 19.812,13.874 L15.211,9.558 C15.051,9.405 15.043,9.155 15.191,8.991 C15.344,8.831 15.598,8.823 15.758,8.976 L20.363,13.292 C20.523,13.444 20.531,13.698 20.379,13.858 C20.301,13.941 20.195,13.983 20.086,13.983 Z" id="Fill-1"></path>
                                <path d="M4.723,13.983 C4.613,13.983 4.508,13.941 4.43,13.858 C4.277,13.698 4.285,13.444 4.445,13.292 L9.051,8.976 C9.215,8.823 9.469,8.831 9.617,8.991 C9.77,9.155 9.762,9.405 9.602,9.558 L4.996,13.874 C4.918,13.948 4.82,13.983 4.723,13.983 Z" id="Fill-2"></path>
                                <path d="M22.809,17.999 L2,17.999 C0.898,17.999 0,17.105 0,15.999 L0,2.362 C0,1.261 0.898,0.362 2,0.362 L22.809,0.362 C23.91,0.362 24.809,1.261 24.809,2.362 L24.809,15.999 C24.809,17.105 23.91,17.999 22.809,17.999 Z M2,1.163 C1.34,1.163 0.801,1.702 0.801,2.362 L0.801,15.999 C0.801,16.663 1.34,17.198 2,17.198 L22.809,17.198 C23.473,17.198 24.008,16.663 24.008,15.999 L24.008,2.362 C24.008,1.702 23.473,1.163 22.809,1.163 L2,1.163 Z" id="Fill-3"></path>
                                <path d="M12.406,11.191 C11.871,11.191 11.34,11.015 10.938,10.663 L0.664,1.702 C0.496,1.558 0.48,1.304 0.625,1.136 C0.77,0.968 1.023,0.956 1.191,1.097 L11.461,10.058 C11.973,10.503 12.836,10.503 13.348,10.058 L23.605,1.112 C23.773,0.968 24.023,0.983 24.172,1.151 C24.316,1.319 24.301,1.569 24.133,1.714 L13.875,10.659 C13.469,11.015 12.938,11.191 12.406,11.191 Z" id="Fill-4"></path>
                            </g>
                        </g>
                    </g>
                </g>
            </g>
        </g>
    </g>
</svg>