<?xml version="1.0" encoding="UTF-8"?>
<svg width="22px" height="20px" viewBox="0 0 22 20" version="1.1" xmlns="http://www.w3.org/2000/svg" xmlns:xlink="http://www.w3.org/1999/xlink">
    <!-- Generator: Sketch 47 (45396) - http://www.bohemiancoding.com/sketch -->
    <title>telegram logo</title>
    <desc>Created with Sketch.</desc>
    <defs>
        <polygon id="path-1" points="1.65340763e-18 0 0 20 21.25 20 21.25 0"></polygon>
    </defs>
    <g id="Home-Pgae" stroke="none" stroke-width="1" fill="none" fill-rule="evenodd">
        <g id="HomePage-1.0-A" transform="translate(-93.000000, -2020.000000)">
            <g id="Section-L" transform="translate(0.000000, 1999.000000)">
                <g id="Social-Logo" transform="translate(93.000000, 20.000000)">
                    <g id="telegram-logo" transform="translate(0.000000, 1.000000)">
                        <g id="sent-mail">
                            <mask id="mask-2" fill="white">
                                <use xlink:href="#path-1"></use>
                            </mask>
                            <g id="Clip-2"></g>
                            <path d="M21.1417579,0.0800524535 C21.0471815,-0.00417343509 20.912583,-0.0237157793 20.7983926,0.0299045371 L0.183928866,9.77014807 C0.0729148359,9.8228801 0.00128775766,9.93545046 1.7210819e-05,10.0597301 C-0.00125333602,10.1840097 0.0679120577,10.2981951 0.17773495,10.3531075 L6.01153019,13.2646745 C6.11857376,13.3182948 6.24602549,13.3059396 6.34155473,13.2334229 L12.0137523,8.92223644 L7.56096206,13.5800977 C7.49735531,13.6466385 7.46511518,13.7374862 7.47194437,13.829949 L7.91552404,19.7016159 C7.92513255,19.8318712 8.01105328,19.9429073 8.13294637,19.9839301 C8.16550413,19.9945895 8.1990148,20 8.23220784,20 C8.32281371,20 8.41119613,19.9602693 8.47257942,19.8879949 L11.5689815,16.238987 L15.3970597,18.0991436 C15.4798835,18.1395204 15.5762862,18.1410547 15.6606982,18.1035043 C15.7450307,18.0663577 15.8092728,17.9934373 15.8369071,17.9042047 L21.2354607,0.41978238 C21.2730212,0.297683105 21.2364136,0.164601356 21.1417579,0.0800524535 Z" id="Fill-1" fill="#FEFEFE" mask="url(#mask-2)"></path>
                        </g>
                    </g>
                </g>
            </g>
        </g>
    </g>
</svg>