<?xml version="1.0" encoding="UTF-8"?>
<svg width="29px" height="20px" viewBox="0 0 29 20" version="1.1" xmlns="http://www.w3.org/2000/svg" xmlns:xlink="http://www.w3.org/1999/xlink">
    <!-- Generator: Sketch 47 (45396) - http://www.bohemiancoding.com/sketch -->
    <title>twitter logo</title>
    <desc>Created with Sketch.</desc>
    <defs></defs>
    <g id="Home-Pgae" stroke="none" stroke-width="1" fill="none" fill-rule="evenodd">
        <g id="HomePage-1.0-A" transform="translate(-175.000000, -2020.000000)" fill="#FFFFFF">
            <g id="Section-L" transform="translate(0.000000, 1999.000000)">
                <g id="Social-Logo" transform="translate(93.000000, 20.000000)">
                    <g id="twitter-logo" transform="translate(82.000000, 1.000000)">
                        <path d="M25.0368627,9.19578168 C26.6223529,9.06558561 27.6976471,8.34401698 28.1113725,7.36676208 C27.54,7.71735031 25.7643137,8.10048757 24.7823529,7.73578168 C24.734902,7.50597776 24.6815686,7.28676208 24.6294118,7.08950717 C23.8815686,4.34440914 21.3235294,2.1338209 18.6427451,2.40166404 C18.8588235,2.31460521 19.0792157,2.23186012 19.2984314,2.15970325 C19.5941176,2.05421306 21.325098,1.77225227 21.052549,1.16087972 C20.8227451,0.623232665 18.7070588,1.56676208 18.3090196,1.68950717 C18.8341176,1.49186012 19.7043137,1.15186012 19.7960784,0.548330704 C18.9921569,0.658526782 18.2015686,1.04009541 17.5901961,1.59303659 C17.8109804,1.35538953 17.9780392,1.06597776 18.0133333,0.754997371 C15.8654902,2.12754639 14.6109804,4.89421306 13.5952941,7.57813463 C12.7972549,6.80597776 12.0909804,6.19774247 11.4568627,5.8593111 C9.67686275,4.90480129 7.55058824,3.91068365 4.21254902,2.66989933 C4.10980392,3.77578168 4.75803922,5.24323266 6.62823529,6.22087972 C6.22235294,6.16715423 5.48235294,6.2883307 4.88980392,6.42911502 C5.13176471,7.69421306 5.91921569,8.73774247 8.05137255,9.24166404 C7.0772549,9.30597776 6.57333333,9.52793855 6.11686275,10.0059778 C6.56078431,10.8851934 7.64392157,11.9224484 9.59254902,11.7095072 C7.42666667,12.6424484 8.70862745,14.3734287 10.4717647,14.1146052 C7.46470588,17.2208797 2.72196078,16.9926444 0,14.3946052 C7.10941176,24.0824484 22.5627451,20.124017 24.8666667,10.7934287 C26.5917647,10.8071542 27.6058824,10.1942131 28.2352941,9.52048757 C27.2411765,9.68872286 25.8011765,9.51421306 25.0368627,9.19578168 Z"></path>
                    </g>
                </g>
            </g>
        </g>
    </g>
</svg>